<svg width="375" height="210" viewBox="0 0 375 210" fill="none" xmlns="http://www.w3.org/2000/svg">
<path d="M312.412 208.632C312.412 208.632 368.037 183.891 366.742 133.976C365.449 84.0602 312.731 60.8488 276.942 91.6667C241.152 122.484 217.99 96.6416 199.448 70.5984C180.907 44.5558 139.544 11.689 85.2753 26.8761C28.4258 42.7852 10.9321 100.365 16.5631 138.789C20.6079 166.388 35.4007 189.788 55.5589 207.768C56.2145 208.353 56.8856 208.931 57.5724 209.5L312.412 208.632Z" fill="#EEF4FF"/>
<path d="M66.7517 102.181H39.145V137.71H66.7517V102.181Z" fill="#B2C8F0"/>
<path d="M256.978 83.7787H208.855V131.909H256.978V83.7787Z" fill="#B2C8F0"/>
<path d="M129.265 89.8421H101.658V125.371H129.265V89.8421Z" fill="#B2C8F0"/>
<path d="M181.497 109.071H153.891V144.599H181.497V109.071Z" fill="#B2C8F0"/>
<path d="M372.676 169.776H11.5383V123.157H372.676V169.776Z" fill="#B2C8F0"/>
<path d="M39.1451 87.6278H11.5383V123.157H39.1451V87.6278Z" fill="#B2C8F0"/>
<path d="M157.817 55.1681C157.817 65.1064 149.762 73.1626 139.825 73.1626C129.888 73.1626 121.832 65.1064 121.832 55.1681C121.832 45.2297 129.888 37.1735 139.825 37.1735C149.762 37.1735 157.817 45.2297 157.817 55.1681Z" fill="#E9EDFD"/>
<path d="M143.989 46.9205C143.989 49.2206 142.125 51.0856 139.825 51.0856C137.525 51.0856 135.661 49.2206 135.661 46.9205C135.661 44.6205 137.525 42.7555 139.825 42.7555C142.125 42.7555 143.989 44.6205 143.989 46.9205Z" fill="#E2F5ED"/>
<path d="M160.85 169.776H118.8V53.6968H160.85V169.776Z" fill="#5A7ECD"/>
<path d="M132.856 78.4636H124.495V62.0106H132.856V78.4636Z" fill="#B2C8F0"/>
<path d="M153.891 78.4636H145.531V62.0106H153.891V78.4636Z" fill="#B2C8F0"/>
<path d="M132.856 103.547H124.495V87.0946H132.856V103.547Z" fill="#B2C8F0"/>
<path d="M153.891 103.547H145.531V87.0946H153.891V103.547Z" fill="#B2C8F0"/>
<path d="M132.856 128.632H124.495V112.179H132.856V128.632Z" fill="#B2C8F0"/>
<path d="M153.891 128.632H145.531V112.179H153.891V128.632Z" fill="#B2C8F0"/>
<path d="M132.856 153.716H124.495V137.263H132.856V153.716Z" fill="#B2C8F0"/>
<path d="M153.891 153.716H145.531V137.263H153.891V153.716Z" fill="#B2C8F0"/>
<path d="M216.482 169.776H170.75V26.8675H216.482V169.776Z" fill="#5A7ECD"/>
<path d="M181.496 43.2683H175.26V37.0318H181.496V43.2683Z" fill="#B2C8F0"/>
<path d="M196.734 43.2683H190.498V37.0318H196.734V43.2683Z" fill="#B2C8F0"/>
<path d="M211.972 43.2683H205.736V37.0318H211.972V43.2683Z" fill="#B2C8F0"/>
<path d="M181.496 54.2844H175.26V48.0479H181.496V54.2844Z" fill="#B2C8F0"/>
<path d="M196.734 54.2844H190.498V48.0479H196.734V54.2844Z" fill="#B2C8F0"/>
<path d="M211.972 54.2844H205.736V48.0479H211.972V54.2844Z" fill="#B2C8F0"/>
<path d="M181.496 65.3005H175.26V59.0641H181.496V65.3005Z" fill="#B2C8F0"/>
<path d="M196.734 65.3005H190.498V59.0641H196.734V65.3005Z" fill="#B2C8F0"/>
<path d="M211.972 65.3005H205.736V59.0641H211.972V65.3005Z" fill="#B2C8F0"/>
<path d="M181.496 76.3173H175.26V70.0802H181.496V76.3173Z" fill="#B2C8F0"/>
<path d="M196.734 76.3173H190.498V70.0802H196.734V76.3173Z" fill="#B2C8F0"/>
<path d="M211.972 76.3173H205.736V70.0802H211.972V76.3173Z" fill="#B2C8F0"/>
<path d="M181.496 87.3329H175.26V81.0964H181.496V87.3329Z" fill="#B2C8F0"/>
<path d="M196.734 87.3329H190.498V81.0964H196.734V87.3329Z" fill="#B2C8F0"/>
<path d="M211.972 87.3329H205.736V81.0964H211.972V87.3329Z" fill="#B2C8F0"/>
<path d="M181.496 98.349H175.26V92.112H181.496V98.349Z" fill="#B2C8F0"/>
<path d="M196.734 98.349H190.498V92.112H196.734V98.349Z" fill="#B2C8F0"/>
<path d="M211.972 98.349H205.736V92.112H211.972V98.349Z" fill="#B2C8F0"/>
<path d="M181.496 109.365H175.26V103.129H181.496V109.365Z" fill="#B2C8F0"/>
<path d="M196.734 109.365H190.498V103.129H196.734V109.365Z" fill="#B2C8F0"/>
<path d="M211.972 109.365H205.736V103.129H211.972V109.365Z" fill="#B2C8F0"/>
<path d="M181.496 120.381H175.26V114.145H181.496V120.381Z" fill="#B2C8F0"/>
<path d="M196.734 120.381H190.498V114.145H196.734V120.381Z" fill="#B2C8F0"/>
<path d="M211.972 120.381H205.736V114.145H211.972V120.381Z" fill="#B2C8F0"/>
<path d="M181.496 131.397H175.26V125.16H181.496V131.397Z" fill="#B2C8F0"/>
<path d="M196.734 131.397H190.498V125.16H196.734V131.397Z" fill="#B2C8F0"/>
<path d="M211.972 131.397H205.736V125.16H211.972V131.397Z" fill="#B2C8F0"/>
<path d="M181.496 142.414H175.26V136.177H181.496V142.414Z" fill="#B2C8F0"/>
<path d="M196.734 142.414H190.498V136.177H196.734V142.414Z" fill="#B2C8F0"/>
<path d="M211.972 142.414H205.736V136.177H211.972V142.414Z" fill="#B2C8F0"/>
<path d="M181.496 153.43H175.26V147.193H181.496V153.43Z" fill="#B2C8F0"/>
<path d="M196.734 153.43H190.498V147.193H196.734V153.43Z" fill="#B2C8F0"/>
<path d="M211.972 153.43H205.736V147.193H211.972V153.43Z" fill="#B2C8F0"/>
<path d="M362.281 209.254H316.549V66.346H362.281V209.254Z" fill="#5A7ECD"/>
<path d="M327.295 82.7468H321.059V76.5103H327.295V82.7468Z" fill="#B2C8F0"/>
<path d="M342.533 82.7468H336.297V76.5103H342.533V82.7468Z" fill="#B2C8F0"/>
<path d="M357.771 82.7468H351.535V76.5103H357.771V82.7468Z" fill="#B2C8F0"/>
<path d="M327.295 93.7634H321.059V87.5269H327.295V93.7634Z" fill="#B2C8F0"/>
<path d="M342.533 93.7634H336.297V87.5269H342.533V93.7634Z" fill="#B2C8F0"/>
<path d="M357.771 93.7634H351.535V87.5269H357.771V93.7634Z" fill="#B2C8F0"/>
<path d="M327.295 104.78H321.059V98.5426H327.295V104.78Z" fill="#B2C8F0"/>
<path d="M342.533 104.78H336.297V98.5426H342.533V104.78Z" fill="#B2C8F0"/>
<path d="M357.771 104.78H351.535V98.5426H357.771V104.78Z" fill="#B2C8F0"/>
<path d="M327.295 115.795H321.059V109.559H327.295V115.795Z" fill="#B2C8F0"/>
<path d="M342.533 115.795H336.297V109.559H342.533V115.795Z" fill="#B2C8F0"/>
<path d="M357.771 115.795H351.535V109.559H357.771V115.795Z" fill="#B2C8F0"/>
<path d="M327.295 126.812H321.059V120.575H327.295V126.812Z" fill="#B2C8F0"/>
<path d="M342.533 126.812H336.297V120.575H342.533V126.812Z" fill="#B2C8F0"/>
<path d="M357.771 126.812H351.535V120.575H357.771V126.812Z" fill="#B2C8F0"/>
<path d="M327.295 137.828H321.059V131.591H327.295V137.828Z" fill="#B2C8F0"/>
<path d="M342.533 137.828H336.297V131.591H342.533V137.828Z" fill="#B2C8F0"/>
<path d="M357.771 137.828H351.535V131.591H357.771V137.828Z" fill="#B2C8F0"/>
<path d="M327.295 148.844H321.059V142.607H327.295V148.844Z" fill="#B2C8F0"/>
<path d="M342.533 148.844H336.297V142.607H342.533V148.844Z" fill="#B2C8F0"/>
<path d="M357.771 148.844H351.535V142.607H357.771V148.844Z" fill="#B2C8F0"/>
<path d="M327.295 159.86H321.059V153.623H327.295V159.86Z" fill="#B2C8F0"/>
<path d="M342.533 159.86H336.297V153.623H342.533V159.86Z" fill="#B2C8F0"/>
<path d="M357.771 159.86H351.535V153.623H357.771V159.86Z" fill="#B2C8F0"/>
<path d="M327.295 170.876H321.059V164.639H327.295V170.876Z" fill="#B2C8F0"/>
<path d="M342.533 170.876H336.297V164.639H342.533V170.876Z" fill="#B2C8F0"/>
<path d="M357.771 170.876H351.535V164.639H357.771V170.876Z" fill="#B2C8F0"/>
<path d="M108.795 169.776H52.2319V26.8675H108.795V169.776Z" fill="#5A7ECD"/>
<path d="M61.9856 123.76H58.1683V49.8417H61.9856V123.76Z" fill="#B2C8F0"/>
<path d="M72.2036 123.76H68.3868V49.8417H72.2036V123.76Z" fill="#B2C8F0"/>
<path d="M82.422 123.76H78.6047V49.8417H82.422V123.76Z" fill="#B2C8F0"/>
<path d="M92.6405 123.76H88.8232V49.8417H92.6405V123.76Z" fill="#B2C8F0"/>
<path d="M102.859 123.76H99.0417V49.8417H102.859V123.76Z" fill="#B2C8F0"/>
<path d="M108.795 42.6812H52.2319V34.7743H108.795V42.6812Z" fill="#E9EDFD"/>
<path d="M6.79922 87.8619C6.79922 89.4859 5.50098 90.8025 3.89972 90.8025C2.29824 90.8025 1 89.4859 1 87.8619C1 86.2379 2.29824 84.9213 3.89972 84.9213C5.50098 84.9213 6.79922 86.2379 6.79922 87.8619V87.8619Z" stroke="#B2C8F0" stroke-width="1.70287" stroke-miterlimit="10"/>
<path d="M351.151 24.7185C351.151 26.3424 349.852 27.6591 348.251 27.6591C346.65 27.6591 345.352 26.3424 345.352 24.7185C345.352 23.0945 346.65 21.7779 348.251 21.7779C349.852 21.7779 351.151 23.0945 351.151 24.7185V24.7185Z" stroke="#B2C8F0" stroke-width="1.70287" stroke-miterlimit="10"/>
<path d="M214.799 55.4221C214.799 57.1059 213.454 58.4711 211.794 58.4711C210.134 58.4711 208.788 57.1059 208.788 55.4221C208.788 53.7383 210.134 52.3737 211.794 52.3737C213.454 52.3737 214.799 53.7383 214.799 55.4221Z" stroke="#B2C8F0" stroke-width="1.70287" stroke-miterlimit="10"/>
<path d="M42.3108 15.158H63.4141" stroke="#B2C8F0" stroke-width="1.33136" stroke-miterlimit="10"/>
<path d="M354.295 80.1572H372.605" stroke="#B2C8F0" stroke-width="1.33136" stroke-miterlimit="10"/>
<path d="M200.66 1.5H232.552" stroke="#B2C8F0" stroke-width="1.33136" stroke-miterlimit="10"/>
<path d="M255.735 209.202H316.168C323.882 209.202 330.135 202.948 330.135 195.233V34.3748C330.135 26.66 323.882 20.4057 316.168 20.4057H255.735C248.022 20.4057 241.768 26.66 241.768 34.3748V195.233C241.768 202.948 248.022 209.202 255.735 209.202Z" fill="#0042B5"/>
<path d="M246.568 209.202H307C314.714 209.202 320.967 202.948 320.967 195.233V34.3748C320.967 26.66 314.714 20.4057 307 20.4057H246.568C238.854 20.4057 232.6 26.66 232.6 34.3748V195.233C232.6 202.948 238.854 209.202 246.568 209.202Z" fill="#0042B5"/>
<path d="M246.485 204.97H307.083C312.394 204.97 316.698 200.664 316.698 195.353V35.1394C316.698 29.8281 312.394 25.5224 307.083 25.5224H246.485C241.175 25.5224 236.869 29.8281 236.869 35.1394V195.353C236.869 200.664 241.175 204.97 246.485 204.97Z" fill="#F5F5F5"/>
<path d="M261.97 30.2454H290.942C292.377 30.2454 293.539 29.0824 293.539 27.6477V23.4109H259.373V27.6477C259.373 29.0824 260.535 30.2454 261.97 30.2454Z" fill="#0042B5"/>
<path d="M268.603 25.8916H281.997" stroke="#312220" stroke-width="1.1578" stroke-miterlimit="10" stroke-linecap="round" stroke-linejoin="round"/>
<path d="M312.392 110.905H241.239V57.6089H312.392V110.905Z" fill="#A5C6FF"/>
<path d="M316.869 61.7092L228.459 128.467" stroke="#F5F5F5" stroke-width="6.83467" stroke-miterlimit="10"/>
<path d="M337.907 72.7319L249.498 139.49" stroke="#F5F5F5" stroke-width="6.83467" stroke-miterlimit="10"/>
<path d="M295.421 51.0187L217.27 110.031" stroke="#F5F5F5" stroke-width="6.83467" stroke-miterlimit="10"/>
<path d="M246.279 52.4933L279.033 100.658C280.144 102.291 279.854 104.496 278.359 105.787L267.846 114.863C263.052 119.002 262.39 123.51 266.347 128.455L283.316 152.344" stroke="#F5F5F5" stroke-width="6.83467" stroke-miterlimit="10"/>
<path d="M300.851 52.3439C300.851 45.5597 293.691 40.4484 286.516 44.1568C285.401 44.7331 283.985 46.1252 283.377 47.2241C281.499 50.6213 281.669 53.9717 283.018 56.619H283.008L283.084 56.757C283.119 56.8222 283.156 56.8858 283.191 56.95L291.419 71.8303L299.661 56.9257C299.689 56.8761 299.717 56.826 299.744 56.7753L299.782 56.7068H299.777C300.46 55.4015 300.851 53.9194 300.851 52.3439Z" fill="#0042B5"/>
<path d="M295.597 52.2443C295.597 54.5524 293.727 56.4233 291.419 56.4233C289.112 56.4233 287.24 54.5524 287.24 52.2443C287.24 49.9361 289.112 48.0653 291.419 48.0653C293.727 48.0653 295.597 49.9361 295.597 52.2443Z" fill="#9B9B9B"/>
<path d="M205.945 164.312H196.177C186.587 164.312 178.813 174.374 178.813 186.786C178.813 199.199 186.587 209.261 196.177 209.261H205.945C215.535 209.261 223.31 199.199 223.31 186.786C223.31 174.374 215.535 164.312 205.945 164.312Z" fill="#111111"/>
<path d="M327.765 164.312H317.997C308.407 164.312 300.632 174.374 300.632 186.786C300.632 199.199 308.407 209.261 317.997 209.261H327.765C337.355 209.261 345.13 199.199 345.13 186.786C345.13 174.374 337.355 164.312 327.765 164.312Z" fill="#111111"/>
<path d="M281.367 158.867H209.358V191.077H281.367V158.867Z" fill="#111111"/>
<path d="M265.686 187.249C265.686 199.373 258.093 209.202 248.726 209.202C239.358 209.202 231.764 199.373 231.764 187.249C231.764 175.125 239.358 165.296 248.726 165.296C258.093 165.296 265.686 175.125 265.686 187.249Z" fill="#111111"/>
<path d="M239.184 209.202H248.726L258.479 199.446L248.726 165.296H239.184V209.202Z" fill="#111111"/>
<path d="M256.145 187.249C256.145 199.373 248.551 209.202 239.184 209.202C229.816 209.202 222.222 199.373 222.222 187.249C222.222 175.125 229.816 165.296 239.184 165.296C248.551 165.296 256.145 175.125 256.145 187.249Z" fill="#0042B5"/>
<path d="M246.2 186.786C246.2 192.92 242.534 197.893 238.012 197.893C233.489 197.893 229.823 192.92 229.823 186.786C229.823 180.652 233.489 175.68 238.012 175.68C242.534 175.68 246.2 180.652 246.2 186.786Z" fill="#B8B8C2"/>
<path d="M250.012 186.786C250.012 192.92 246.346 197.893 241.824 197.893C237.301 197.893 233.635 192.92 233.635 186.786C233.635 180.652 237.301 175.68 241.824 175.68C246.346 175.68 250.012 180.652 250.012 186.786Z" fill="#9B9B9B"/>
<path d="M159.549 158.867H87.5394V191.077H159.549V158.867Z" fill="#111111"/>
<path d="M143.867 187.249C143.867 199.373 136.273 209.202 126.905 209.202C117.538 209.202 109.945 199.373 109.945 187.249C109.945 175.125 117.538 165.296 126.905 165.296C136.273 165.296 143.867 175.125 143.867 187.249Z" fill="#111111"/>
<path d="M117.364 209.202H126.906L136.66 199.446L126.906 165.296H117.364V209.202Z" fill="#111111"/>
<path d="M134.326 187.249C134.326 199.373 126.732 209.202 117.364 209.202C107.997 209.202 100.403 199.373 100.403 187.249C100.403 175.125 107.997 165.296 117.364 165.296C126.732 165.296 134.326 175.125 134.326 187.249Z" fill="#0042B5"/>
<path d="M124.38 186.786C124.38 192.92 120.714 197.893 116.192 197.893C111.67 197.893 108.004 192.92 108.004 186.786C108.004 180.652 111.67 175.68 116.192 175.68C120.714 175.68 124.38 180.652 124.38 186.786Z" fill="#B8B8C2"/>
<path d="M128.193 186.786C128.193 192.92 124.526 197.893 120.004 197.893C115.482 197.893 111.816 192.92 111.816 186.786C111.816 180.652 115.482 175.68 120.004 175.68C124.526 175.68 128.193 180.652 128.193 186.786Z" fill="#9B9B9B"/>
<path d="M76.1005 191.076V152.938C76.1005 147.498 80.0897 142.863 85.4763 142.115C90.2047 141.458 96.2582 140.885 102.523 141.001C102.523 141.001 138.727 118.745 152.003 118.745L235.173 118.316C246.306 118.164 257.315 120.673 267.283 125.635L304.323 144.068L353.57 154.852C353.57 154.852 363.771 157.62 365.957 164.252C368.143 170.884 367.415 178.172 367.415 178.172H259.251C259.251 178.172 254.376 162.843 238.779 162.843C223.181 162.843 218.957 181.652 219.932 191.076H138.21C138.21 191.076 138.535 163.127 117.413 164.102C96.291 165.077 97.9159 191.076 97.9159 191.076H76.1005Z" fill="#0042B5"/>
<path d="M76.9031 178.172C74.0534 178.172 71.7424 180.48 71.7386 183.329L71.7354 185.915C71.7354 188.765 74.0459 191.076 76.8966 191.076H97.9158C97.9158 191.076 97.8085 184.042 99.6721 178.172H76.9031Z" fill="#001B58"/>
<path d="M203.349 107.805H171.072C168.383 107.805 166.203 109.985 166.203 112.674V118.745H208.217V112.674C208.217 109.985 206.037 107.805 203.349 107.805Z" fill="#111111"/>
<path d="M209.628 107.805H177.351C174.662 107.805 172.483 109.985 172.483 112.674V118.745H214.496V112.674C214.496 109.985 212.316 107.805 209.628 107.805Z" fill="#001B58"/>
<path d="M184.039 111.205H182.038V110.256H187.161V111.205H185.16V116.293H184.039V111.205Z" fill="#111111"/>
<path d="M191.898 114.017L190.76 111.377L189.63 114.017H191.898ZM192.269 114.896H189.251L188.656 116.293H187.5L190.217 110.256H191.32L194.046 116.293H192.873L192.269 114.896Z" fill="#111111"/>
<path d="M198.965 116.293L197.326 113.999L195.705 116.293H194.429L196.671 113.214L194.549 110.256H195.817L197.361 112.403L198.887 110.256H200.104L197.991 113.171L200.259 116.293H198.965Z" fill="#111111"/>
<path d="M201.59 110.256H202.711V116.293H201.59V110.256Z" fill="#111111"/>
<path d="M219.612 142.537L186.745 124.047C183.954 122.477 180.805 121.652 177.602 121.652H158.03C152.966 121.652 148.005 123.083 143.718 125.781L112.493 143.502C111.601 144.008 111.96 145.369 112.985 145.369H218.87C220.426 145.369 220.968 143.301 219.612 142.537Z" fill="#111111"/>
<path d="M112.286 144.271V157.534C112.286 157.534 140.961 151.758 143.867 184.624H209.358C209.358 184.624 207.608 152.497 219.7 144.66" stroke="#111111" stroke-width="1.04803" stroke-miterlimit="10" stroke-linecap="round" stroke-linejoin="round"/>
<path d="M165.733 145.369C165.733 145.369 158.901 148.4 162.214 184.624" stroke="#111111" stroke-width="1.04803" stroke-miterlimit="10" stroke-linecap="round" stroke-linejoin="round"/>
<path d="M176.267 151.789H169.686C168.966 151.789 168.383 151.205 168.383 150.485V149.881C168.383 149.161 168.966 148.577 169.686 148.577H176.267C176.988 148.577 177.571 149.161 177.571 149.881V150.485C177.571 151.205 176.988 151.789 176.267 151.789Z" fill="#111111"/>
<path d="M126.834 151.789H120.253C119.533 151.789 118.949 151.205 118.949 150.485V149.881C118.949 149.161 119.533 148.577 120.253 148.577H126.834C127.554 148.577 128.138 149.161 128.138 149.881V150.485C128.138 151.205 127.554 151.789 126.834 151.789Z" fill="#111111"/>
<path d="M199.24 125.394L236.859 145.369H300.814L257.79 124.328C254.189 122.567 250.234 121.652 246.226 121.652H200.172C198.101 121.652 197.412 124.422 199.24 125.394Z" fill="#111111"/>
<path d="M246.2 148.577H305.4" stroke="#111111" stroke-width="1.04803" stroke-miterlimit="10" stroke-linecap="round" stroke-linejoin="round"/>
<path d="M211.42 121.652L253.178 145.369H267.113L225.368 121.652H211.42Z" fill="#5E5E5E"/>
<path d="M237.432 121.652L279.191 145.369H283.72L241.975 121.652H237.432Z" fill="#5E5E5E"/>
<path d="M361.07 191.076H264.402C261.551 191.076 259.24 188.765 259.24 185.915L259.251 178.172H367.415L367.328 184.818C367.328 188.274 364.527 191.076 361.07 191.076Z" fill="#001B58"/>
<path d="M335.976 181.879H318.428V176.569H335.976V181.879Z" fill="#9B9B9B"/>
<path d="M297.616 165.982H349.339" stroke="#111111" stroke-width="1.04803" stroke-miterlimit="10" stroke-linecap="round" stroke-linejoin="round"/>
<path d="M307.056 169.932H341.05" stroke="#111111" stroke-width="1.04803" stroke-miterlimit="10" stroke-linecap="round" stroke-linejoin="round"/>
<path d="M307.056 173.866H341.05" stroke="#111111" stroke-width="1.04803" stroke-miterlimit="10" stroke-linecap="round" stroke-linejoin="round"/>
<path d="M299.774 174.461H277.198C275.29 174.461 273.744 172.915 273.744 171.007V167.766C273.744 165.858 275.29 164.312 277.198 164.312H299.774C301.682 164.312 303.228 165.858 303.228 167.766V171.007C303.228 172.915 301.682 174.461 299.774 174.461Z" fill="#9B9B9B"/>
<path d="M365.991 164.312H348.867C346.96 164.312 345.413 165.858 345.413 167.766V171.007C345.413 172.915 346.96 174.461 348.867 174.461H367.53C367.682 167.646 366.221 164.728 365.991 164.312Z" fill="#9B9B9B"/>
<path d="M273.744 171.007H303.228" stroke="#111111" stroke-width="1.04803" stroke-miterlimit="10" stroke-linecap="round" stroke-linejoin="round"/>
<path d="M345.413 171.007H367.414" stroke="#111111" stroke-width="1.04803" stroke-miterlimit="10" stroke-linecap="round" stroke-linejoin="round"/>
<path d="M163.112 24.8203C163.112 14.7682 152.502 7.19406 141.871 12.6887C140.219 13.5427 138.12 15.6061 137.221 17.2338C134.439 22.2674 134.689 27.2315 136.688 31.1539H136.674L136.787 31.3588C136.838 31.4553 136.892 31.5502 136.945 31.6451L149.136 53.693L161.348 31.6095C161.389 31.5351 161.431 31.4617 161.471 31.3863L161.527 31.2849H161.52C162.532 29.3504 163.112 27.1544 163.112 24.8203Z" fill="#0042B5"/>
<path d="M155.327 24.6721C155.327 28.092 152.555 30.8649 149.136 30.8649C145.716 30.8649 142.944 28.092 142.944 24.6721C142.944 21.2527 145.716 18.4798 149.136 18.4798C152.555 18.4798 155.327 21.2527 155.327 24.6721Z" fill="#9B9B9B"/>
<path d="M98.0339 198.309H106.753L121.171 206.023L96.3789 205.728L98.0339 198.309Z" fill="#111111"/>
<path d="M96.2926 208.991L96.3789 205.728L121.171 206.023L121.085 209.286L96.2926 208.991Z" fill="#9B9B9B"/>
<path d="M112.778 201.15L109.922 201.931" stroke="#9B9B9B" stroke-width="1.94209" stroke-miterlimit="10" stroke-linecap="round" stroke-linejoin="round"/>
<path d="M109.986 199.717L107.129 200.498" stroke="#9B9B9B" stroke-width="1.94209" stroke-miterlimit="10" stroke-linecap="round" stroke-linejoin="round"/>
<path d="M107.675 186.016H98.7885L98.0338 198.309H106.92L107.675 186.016Z" fill="#EBB28B"/>
<path d="M113.49 105.241L108.01 194.356H95.6366L97.7746 105.241H113.49Z" fill="#B2C8F0"/>
<path d="M77.9964 198.309H86.7152L101.134 206.023L76.3414 205.728L77.9964 198.309Z" fill="#111111"/>
<path d="M76.2557 208.991L76.3415 205.728L101.134 206.023L101.047 209.286L76.2557 208.991Z" fill="#9B9B9B"/>
<path d="M92.7411 201.15L89.885 201.931" stroke="#9B9B9B" stroke-width="1.94209" stroke-miterlimit="10" stroke-linecap="round" stroke-linejoin="round"/>
<path d="M89.9492 199.717L87.0925 200.498" stroke="#9B9B9B" stroke-width="1.94209" stroke-miterlimit="10" stroke-linecap="round" stroke-linejoin="round"/>
<path d="M88.5205 186.016H79.6341L77.9963 198.309H86.8833L88.5205 186.016Z" fill="#EBB28B"/>
<path d="M87.2883 105.241L75.1727 194.356H88.6991L106.309 105.241H87.2883Z" fill="#B2C8F0"/>
<path d="M96.5956 154.397L103.51 119.404L108.558 116.114" stroke="#111111" stroke-width="0.850184" stroke-miterlimit="10" stroke-linecap="round" stroke-linejoin="round"/>
<path d="M85.5125 118.304L93.0684 112.355" stroke="#111111" stroke-width="0.850184" stroke-miterlimit="10" stroke-linecap="round" stroke-linejoin="round"/>
<path d="M115.818 71.371L129.584 89.4486C131.107 91.1502 131.201 93.6951 129.81 95.505C128.054 97.7868 124.689 97.9922 122.669 95.9407L107.875 78.8287C105.846 76.7681 105.781 73.4819 107.725 71.3409H107.725C109.898 68.9486 113.663 68.9632 115.818 71.371Z" fill="#EBB28B"/>
<path d="M109.076 64.5135C109.076 64.5135 115.806 65.3535 120.958 75.342L113.043 84.8313L109.076 64.5135Z" fill="#0042B5"/>
<path d="M120.146 90.1904L139.017 78.3537L142.774 82.2329L129.093 96.2533L120.146 90.1904Z" fill="#EBB28B"/>
<path d="M142.04 70.9575L151.397 73.6878C151.397 73.6878 151.397 80.9407 142.766 82.2519C142.294 82.3236 140.17 81.5105 139.804 81.1849L138.368 77.09C137.859 76.4187 137.902 75.4789 138.471 74.8573L142.04 70.9575Z" fill="#EBB28B"/>
<path d="M141.266 72.1641L144.576 67.8179C145.068 67.2114 145.909 67.0841 146.466 67.5311C146.999 67.9603 147.087 68.7712 146.665 69.3907L143.608 74.158L141.266 72.1641Z" fill="#E9B0A0"/>
<path d="M145.267 75.6315L149.244 71.7064C149.794 71.1549 150.61 71.0982 151.078 71.5797C151.527 72.0418 151.5 72.8397 151.015 73.4096L147.221 77.7666L145.267 75.6315Z" fill="#E9B0A0"/>
<path d="M143.736 72.9502L147.493 69.238C148.047 68.6908 148.888 68.6671 149.384 69.1847C149.859 69.6807 149.85 70.5045 149.364 71.0739L145.805 75.24L143.736 72.9502Z" fill="#E9B0A0"/>
<path d="M150.06 61.5507L151.55 61.6467V71.4276L146.321 79.6154L144.732 79.4854L147.537 69.2004L150.06 61.5507Z" fill="#36438D"/>
<path d="M141.297 75.1269L145.666 79.2466C146.066 79.7437 146.825 79.7372 147.216 79.2331L156.73 67.3565C156.963 67.0561 156.959 66.6356 156.721 66.3396L152.137 61.9535C151.805 61.54 151.174 61.5459 150.849 61.9648L141.286 73.9046C141.006 74.2653 141.01 74.771 141.297 75.1269Z" fill="#050907"/>
<path d="M139.843 75.0303L144.213 79.1501C144.612 79.6472 145.371 79.6402 145.761 79.136L155.276 67.2599C155.509 66.9596 155.505 66.5391 155.267 66.2431L150.683 61.857C150.351 61.4435 149.719 61.4494 149.395 61.8683L139.832 73.8081C139.552 74.1688 139.556 74.6745 139.843 75.0303Z" fill="#9B9B9B"/>
<path d="M139.377 78.4211C138.865 78.1694 137.586 76.8355 137.812 74.8136C138.109 72.1529 139.484 70.1375 139.484 70.1375C139.94 69.2807 140.47 68.8661 141.212 68.9696C142.016 69.0823 142.532 69.9385 142.388 70.5332L141.55 72.3912C141.55 72.3912 142.472 74.7468 140.542 78.3171L139.377 78.4211Z" fill="#EBB28B"/>
<path d="M96.4139 62.5973C96.4139 62.5973 91.3238 63.7867 87.6947 65.6171C85.41 66.7698 85.1566 69.2602 85.444 71.8029L87.2882 105.241H113.49L115.323 72.9362C115.575 69.3923 113.494 65.9191 110.131 64.776C106.362 63.495 103.982 62.2754 101.977 62.1589L96.4139 62.5973Z" fill="#0042B5"/>
<path d="M114.767 82.764L115.323 72.9362" stroke="#111111" stroke-width="0.850184" stroke-miterlimit="10" stroke-linecap="round" stroke-linejoin="round"/>
<path d="M96.4139 62.5973L93.3928 63.4276C93.3928 63.4276 95.6365 67.7517 103.787 67.02C109.503 66.5073 107.2 63.7106 107.2 63.7106L104.356 62.6814L96.4139 62.5973Z" fill="#EBB28B"/>
<path d="M71.6534 81.7942L85.1829 101.716L81.5392 105.702L66.6042 91.0667L71.6534 81.7942Z" fill="#EBB28B"/>
<path d="M97.6145 102.622L91.8273 99.6791L92.3955 98.4089C92.6025 97.9468 92.4742 97.4028 92.0828 97.0815C91.6785 96.7493 91.099 96.7402 90.6845 97.0594L84.9846 101.535L81.5393 105.702C84.6655 108.379 86.7087 108.346 87.886 107.827C88.0235 107.873 88.1593 107.923 88.299 107.963L93.1087 109.343C93.5535 109.535 94.071 109.347 94.2888 108.915C94.4473 108.601 94.5034 108.098 93.5778 107.628L94.5034 108.098C94.974 108.301 95.5206 108.095 95.74 107.632C95.9471 107.223 95.6931 106.682 95.1497 106.329L95.8581 106.607C96.3713 106.828 96.9756 106.576 97.1681 106.032C97.3341 105.561 97.0851 105.041 96.6392 104.815L95.6166 104.298L96.8312 104.591C97.3902 104.789 98.0139 104.491 98.1972 103.905C98.3546 103.402 98.084 102.861 97.6145 102.622Z" fill="#EBB28B"/>
<path d="M95.9244 104.443L92.5028 102.828" stroke="#111111" stroke-width="0.552121" stroke-miterlimit="10" stroke-linecap="round" stroke-linejoin="round"/>
<path d="M95.0043 106.268L91.7056 104.894" stroke="#111111" stroke-width="0.552121" stroke-miterlimit="10" stroke-linecap="round" stroke-linejoin="round"/>
<path d="M93.8839 107.749L91.0887 106.646" stroke="#111111" stroke-width="0.552121" stroke-miterlimit="10" stroke-linecap="round" stroke-linejoin="round"/>
<path d="M90.63 76.3027L73.4249 91.1437C71.8195 92.7671 69.2852 93.0162 67.3941 91.7362C65.0102 90.123 64.6011 86.7754 66.5256 84.6349L82.7043 68.8261C84.6375 66.6754 87.9135 66.4102 90.168 68.2212C92.6877 70.2452 92.9028 74.0048 90.63 76.3027Z" fill="#EBB28B"/>
<path d="M91.4058 64.0772C91.4058 64.0772 82.4267 65.8322 75.0605 75.1721L82.8671 85.3499L94.0597 77.3336L91.4058 64.0772Z" fill="#0042B5"/>
<path d="M86.6666 82.6282L93.1594 77.9779" stroke="#111111" stroke-width="0.850184" stroke-miterlimit="10" stroke-linecap="round" stroke-linejoin="round"/>
<path d="M110.332 34.5258C110.332 34.5258 113.363 37.235 110.848 43.3179L106.686 35.1054L110.332 34.5258Z" fill="#0042B5"/>
<path d="M93.3498 35.2596C93.3498 35.2596 89.8096 34.8746 89.0058 40.3353C88.202 45.7964 92.2144 49.0605 96.6684 51.7008L93.3498 35.2596Z" fill="#0042B5"/>
<path d="M110.887 42.2396C110.887 47.9801 106.34 52.6335 100.73 52.6335C95.1207 52.6335 90.5729 47.9801 90.5729 42.2396C90.5729 36.4997 95.1207 31.8462 100.73 31.8462C106.34 31.8462 110.887 36.4997 110.887 42.2396Z" fill="#0042B5"/>
<path d="M107.292 46.7167C107.746 48.0657 109.207 48.7914 110.555 48.338C111.904 47.8846 112.63 46.4234 112.176 45.0745C111.723 43.7255 110.262 42.9992 108.913 43.4532C107.564 43.9066 106.839 45.3678 107.292 46.7167Z" fill="#DD8161"/>
<path d="M104.404 52.6967L104.555 63.9102L96.1924 62.5277L96.7999 46.4451L104.404 52.6967Z" fill="#EBB28B"/>
<path d="M104.485 58.3783L98.6113 52.6335L104.671 53.6978L104.485 58.3783Z" fill="#111111"/>
<path d="M109.675 37.2464C109.675 37.2464 111.937 46.2784 110.915 49.7457C109.894 53.2136 107.202 55.4614 102.705 54.7238C102.705 54.7238 97.5196 54.6246 95.987 46.9771C93.6796 35.4639 104.098 31.2487 109.675 37.2464Z" fill="#EBB28B"/>
<path d="M97.4393 46.9707C97.4393 46.9707 100.758 39.3469 97.1536 37.8605C96.0722 37.4146 95.4382 37.1881 94.9271 41.0092C94.4155 44.8297 95.7498 45.4551 95.7498 45.4551L97.4393 46.9707Z" fill="#0042B5"/>
<path d="M92.85 47.8463C93.319 49.2406 94.8285 49.9905 96.2226 49.522C97.6166 49.0529 98.3665 47.5427 97.898 46.149C97.4296 44.7547 95.9196 44.0042 94.5255 44.4727C93.1319 44.9418 92.3815 46.452 92.85 47.8463Z" fill="#EBB28B"/>
<path d="M94.1503 46.2558C94.1503 46.2558 96.0845 45.6368 96.6684 47.7687" stroke="#111111" stroke-width="0.525888" stroke-miterlimit="10" stroke-linecap="round" stroke-linejoin="round"/>
<path d="M107.819 45.9609L108.397 47.9111C108.425 48.0561 108.335 48.1973 108.191 48.2324L107.537 48.3375" stroke="#1E0B07" stroke-width="0.497083" stroke-miterlimit="10" stroke-linecap="round" stroke-linejoin="round"/>
<path d="M103.753 45.3505C103.732 45.7058 104.003 46.011 104.357 46.032C104.713 46.0536 105.018 45.7829 105.039 45.4276C105.06 45.0728 104.79 44.7677 104.435 44.7461C104.08 44.7251 103.775 44.9957 103.753 45.3505Z" fill="#111111"/>
<path d="M109.138 45.2055C109.118 45.5349 109.369 45.8174 109.699 45.8374C110.028 45.8573 110.311 45.6061 110.331 45.2772C110.35 44.9478 110.099 44.6647 109.77 44.6448C109.441 44.6253 109.158 44.8761 109.138 45.2055Z" fill="#111111"/>
<path d="M105.611 40.9892L100.758 42.5404C100.758 42.5404 101.837 41.0583 103.237 40.6183C104.636 40.1783 105.611 40.9892 105.611 40.9892Z" fill="#111111"/>
<path d="M108.333 40.8749L110.888 41.6987C110.888 41.6987 110.449 40.6064 109.711 40.3745C108.974 40.1432 108.333 40.8749 108.333 40.8749Z" fill="#111111"/>
<path d="M104.396 48.8211C104.396 48.8211 106.183 49.7312 107.969 49.7312C107.969 49.7312 105.539 51.4958 104.396 48.8211Z" fill="#9B9B9B"/>
<path d="M96.0743 37.9479C96.0743 37.9479 98.7735 40.2739 105.456 38.9276C112.137 37.5807 112.401 33.0512 111.596 31.4596C111.596 31.4596 109.137 33.3688 105.086 32.325C102.826 31.7422 97.7794 29.6184 94.7492 31.8931C93.705 32.6776 93.098 33.9781 93.3497 35.2597C93.5443 36.2512 94.2063 37.3834 96.0743 37.9479Z" fill="#0042B5"/>
<path d="M65.6625 156.231H48.2693V118.966C48.2693 115.241 51.2887 112.221 55.0133 112.221H58.919C62.6436 112.221 65.6625 115.241 65.6625 118.966V156.231Z" stroke="#111111" stroke-width="3.82461" stroke-miterlimit="10"/>
<path d="M52.105 205.247C52.105 207.478 50.2969 209.286 48.0666 209.286C45.8364 209.286 44.0283 207.478 44.0283 205.247C44.0283 203.017 45.8364 201.208 48.0666 201.208C50.2969 201.208 52.105 203.017 52.105 205.247Z" fill="#111111"/>
<path d="M69.9041 205.247C69.9041 207.478 68.096 209.286 65.8652 209.286C63.635 209.286 61.8269 207.478 61.8269 205.247C61.8269 203.017 63.635 201.208 65.8652 201.208C68.096 201.208 69.9041 203.017 69.9041 205.247Z" fill="#111111"/>
<path d="M70.7757 204.3H43.156C39.2151 204.3 36.0204 201.105 36.0204 197.163V150.57C36.0204 146.628 39.2151 143.433 43.156 143.433H70.7757C74.717 143.433 77.9117 146.628 77.9117 150.57V197.163C77.9117 201.105 74.717 204.3 70.7757 204.3Z" fill="#0042B5"/>
<path d="M44.7356 195.131H43.2062V153.059H44.7356V195.131Z" stroke="#111111" stroke-width="0.817204" stroke-miterlimit="10" stroke-linecap="round" stroke-linejoin="round"/>
<path d="M52.8699 195.131H51.3405V153.059H52.8699V195.131Z" stroke="#111111" stroke-width="0.817204" stroke-miterlimit="10" stroke-linecap="round" stroke-linejoin="round"/>
<path d="M61.0043 195.131H59.4749V153.059H61.0043V195.131Z" stroke="#111111" stroke-width="0.817204" stroke-miterlimit="10" stroke-linecap="round" stroke-linejoin="round"/>
<path d="M69.1385 195.131H67.6091V153.059H69.1385V195.131Z" stroke="#111111" stroke-width="0.817204" stroke-miterlimit="10" stroke-linecap="round" stroke-linejoin="round"/>
<path d="M9.72119 209.261H374" stroke="#111111" stroke-width="1.30461" stroke-miterlimit="10" stroke-linecap="round" stroke-linejoin="round"/>
</svg>
